<svg width="27" height="28" viewBox="0 0 27 28" fill="none" xmlns="http://www.w3.org/2000/svg">
<g clip-path="url(#clip0_47_381)">
<path d="M26.9871 14.2619C26.9871 13.1148 26.8952 12.2777 26.6964 11.4096H13.7689V16.5872H21.3571C21.2041 17.8739 20.378 19.8117 18.5421 21.1138L18.5164 21.2872L22.6038 24.4957L22.887 24.5244C25.4878 22.0905 26.9871 18.5095 26.9871 14.2619Z" fill="#4285F4"/>
<path d="M13.7689 27.9038C17.4865 27.9038 20.6074 26.6636 22.887 24.5244L18.5421 21.1138C17.3794 21.9354 15.8189 22.509 13.7689 22.509C10.1278 22.509 7.03748 20.0753 5.93586 16.7113L5.77439 16.7252L1.52421 20.0582L1.46863 20.2147C3.73283 24.7723 8.38369 27.9038 13.7689 27.9038Z" fill="#34A853"/>
<path d="M5.93589 16.7113C5.64522 15.8432 5.47699 14.913 5.47699 13.9519C5.47699 12.9907 5.64522 12.0606 5.92059 11.1925L5.91289 11.0076L1.60945 7.62112L1.46865 7.68899C0.535465 9.58027 0 11.7041 0 13.9519C0 16.1997 0.535465 18.3234 1.46865 20.2147L5.93589 16.7113Z" fill="#FBBC05"/>
<path d="M13.7689 5.3947C16.3544 5.3947 18.0984 6.52635 19.0929 7.47205L22.9788 3.6275C20.5922 1.37969 17.4865 0 13.7689 0C8.38369 0 3.73283 3.1314 1.46863 7.68899L5.92057 11.1925C7.03748 7.82857 10.1278 5.3947 13.7689 5.3947" fill="#EB4335"/>
</g>
<defs>
<clipPath id="clip0_47_381">
<rect width="27" height="28" fill="white"/>
</clipPath>
</defs>
</svg>
